<?xml version="1.0" encoding="UTF-8" standalone="no"?>
<svg
   id="Capa_2"
   viewBox="0 0 725.53 206.31"
   version="1.1"
   sodipodi:docname="appox.wiki_logo_light.svg"
   inkscape:version="1.4 (e7c3feb100, 2024-10-09)"
   xmlns:inkscape="http://www.inkscape.org/namespaces/inkscape"
   xmlns:sodipodi="http://sodipodi.sourceforge.net/DTD/sodipodi-0.dtd"
   xmlns="http://www.w3.org/2000/svg"
   xmlns:svg="http://www.w3.org/2000/svg">
  <sodipodi:namedview
     id="namedview6"
     pagecolor="#ffffff"
     bordercolor="#000000"
     borderopacity="0.25"
     inkscape:showpageshadow="2"
     inkscape:pageopacity="0.0"
     inkscape:pagecheckerboard="0"
     inkscape:deskcolor="#d1d1d1"
     inkscape:export-bgcolor="#00000000"
     inkscape:zoom="1.170179"
     inkscape:cx="362.76501"
     inkscape:cy="103.40298"
     inkscape:window-width="1536"
     inkscape:window-height="795"
     inkscape:window-x="0"
     inkscape:window-y="0"
     inkscape:window-maximized="1"
     inkscape:current-layer="Capa_1-2" />
  <defs
     id="defs1">
    <rect
       x="281.15357"
       y="171.76859"
       width="113.65783"
       height="61.529052"
       id="rect6" />
    <style
       id="style1">.cls-1{fill:#fff;}</style>
  </defs>
  <g
     id="Capa_1-2"
     style="fill:#f2f2f2">
    <g
       id="g6"
       style="fill:#f2f2f2">
      <path
         class="cls-1"
         d="M113.84,103.16c0-5.89-4.79-10.69-10.69-10.69s-10.69,4.79-10.69,10.69,4.79,10.69,10.69,10.69,10.69-4.79,10.69-10.69"
         id="path1"
         style="fill:#f2f2f2" />
      <path
         class="cls-1"
         d="M137.94,54.13c-3.31,0-6,2.69-6,6s2.69,6,6,6,6-2.69,6-6-2.69-6-6-6"
         id="path2"
         style="fill:#f2f2f2" />
      <path
         class="cls-1"
         d="M206.31,103.16C206.31,46.27,160.04,0,103.16,0S0,46.27,0,103.16s46.27,103.16,103.16,103.16,103.16-46.28,103.16-103.16m-103.16,93.92c-51.79,0-93.92-42.13-93.92-93.92S51.37,9.24,103.16,9.24s93.92,42.13,93.92,93.92-42.13,93.92-93.92,93.92"
         id="path3"
         style="fill:#f2f2f2" />
      <path
         class="cls-1"
         d="M410.24,96.53c7.04-3.25,11.57-10.33,11.57-18.04,0-5.23-2.06-10.23-5.79-14.09l-.09-.09c-3.71-3.71-8.65-5.75-13.91-5.75h-54.2v83.55h5.04v-43.96h45.74v-.14h6.49c1.81-.22,3.54-.72,5.15-1.47m-57.38-3.29v-29.64h49.29c5.37,0,8.82,2.64,10.39,4.22,1.31,1.31,4.36,4.96,4.36,10.53,0,4.35-1.91,8.42-5.19,11.19v.58l-3.32,1.66c-1.91,.95-4.06,1.46-6.24,1.46h-49.29Z"
         id="path4"
         style="fill:#f2f2f2" />
      <path
         class="cls-1"
         d="M516.73,96.53c7.04-3.25,11.57-10.33,11.57-18.04,0-5.23-2.06-10.23-5.79-14.09l-.08-.08c-3.71-3.71-8.66-5.76-13.92-5.76h-54.2v83.55h5.04v-43.96h45.74v-.14h6.49c1.81-.22,3.54-.72,5.15-1.47m-57.38-3.29v-29.64h49.29c5.38,0,8.82,2.64,10.4,4.22,1.31,1.31,4.35,4.96,4.35,10.53,0,4.35-1.91,8.42-5.19,11.19v.58l-3.32,1.66c-1.9,.95-4.06,1.46-6.24,1.46h-49.29Z"
         id="path5"
         style="fill:#f2f2f2" />
      <polygon
         class="cls-1"
         points="236.37 132.85 231.63 142.11 238.04 142.11 245.76 127.01 274.23 71.2 310.42 142.11 316.82 142.11 312.09 132.86 274.23 58.56 236.37 132.85"
         id="polygon5"
         style="fill:#f2f2f2" />
      <path
         class="cls-1"
         d="M591.33,58.56c-23.68,0-42.95,19.27-42.95,42.95s19.27,42.95,42.95,42.95,42.95-19.27,42.95-42.95-19.27-42.95-42.95-42.95m33.34,42.95c0,18.38-14.95,33.34-33.34,33.34s-33.34-14.96-33.34-33.34,14.96-33.34,33.34-33.34,33.34,14.96,33.34,33.34"
         id="path6"
         style="fill:#f2f2f2" />
      <polygon
         class="cls-1"
         points="725.53 58.69 713.25 58.69 686.06 93.95 658.87 58.69 646.72 58.69 679.98 101.77 646.98 144.6 659.14 144.6 686.19 109.61 713.25 144.6 725.39 144.6 692.27 101.78 725.53 58.69"
         id="polygon6"
         style="fill:#f2f2f2" />
    </g>
    <text
       xml:space="preserve"
       id="text6"
       style="font-weight:bold;font-size:48px;font-family:'Liberation Sans';-inkscape-font-specification:'Liberation Sans Bold';text-align:start;writing-mode:lr-tb;direction:ltr;white-space:pre;shape-inside:url(#rect6);fill:#e6e6e6;stroke:#f1f1f1;stroke-width:0.245669"
       transform="matrix(1.278712,0,0,1.278712,-3.9923015,-72.415314)"><tspan
         x="281.1543"
         y="215.00574"
         id="tspan1">Wiki</tspan></text>
  </g>
</svg>
